<svg width="233" height="182" viewBox="0 0 233 182" fill="none" xmlns="http://www.w3.org/2000/svg">
<path d="M135.319 50.5906L130.659 48.1007L131.008 47.9142L135.667 50.4044L135.319 50.5906Z" fill="#CBCBCB"/>
<path d="M131.254 50.5906L130.906 50.4044L135.565 47.9142L135.914 48.1007L131.254 50.5906Z" fill="#CBCBCB"/>
<path d="M96.5744 31.2899L96.3495 31.7314L97.6658 32.41L97.8907 31.9685L96.5744 31.2899Z" fill="#CBCBCB"/>
<path d="M123.865 45.9165L121.245 44.5659L121.47 44.1244L124.09 45.475L123.865 45.9165ZM118.625 43.2152L116.005 41.8645L116.23 41.423L118.85 42.7737L118.625 43.2152ZM113.385 40.5138L110.765 39.1632L110.99 38.7217L113.61 40.0723L113.385 40.5138ZM108.146 37.8125L105.526 36.4619L105.75 36.0204L108.37 37.371L108.146 37.8125ZM102.906 35.1112L100.286 33.7606L100.511 33.3191L103.13 34.6698L102.906 35.1112Z" fill="#CBCBCB"/>
<path d="M126.71 46.8257L126.485 47.2672L127.801 47.9457L128.026 47.5043L126.71 46.8257Z" fill="#CBCBCB"/>
<path d="M27.3237 64.4946C27.3237 64.6495 27.3187 64.8032 27.3087 64.9555C27.2527 65.8341 27.0321 66.6941 26.6585 67.4902C26.6556 67.497 26.6522 67.5034 26.6493 67.5097C26.6319 67.5466 26.614 67.5835 26.5957 67.6199C26.4846 67.8451 26.3613 68.064 26.2264 68.2756C25.6103 69.2471 24.7658 70.0509 23.7675 70.616C22.7693 71.1812 21.648 71.4903 20.5029 71.516L20.5719 75.5102L21.4723 75.0332L21.633 75.3407L20.5787 75.8992L20.7076 83.3174L20.709 83.4165L20.0129 83.5724L20.0143 83.4728L20.2335 71.5165C19.3118 71.5032 18.4018 71.3058 17.5565 70.9358C16.7112 70.5658 15.9474 70.0305 15.3094 69.3611C15.2655 69.3154 15.2221 69.2683 15.1796 69.2217L15.1748 69.2163C14.6432 68.6331 14.2133 67.9639 13.9032 67.2367C13.91 67.2445 13.9172 67.2518 13.924 67.2595C13.2231 65.6107 13.1756 63.7546 13.7911 62.0716C14.4066 60.3886 15.6386 59.0062 17.2347 58.2076C17.2588 58.1954 17.2834 58.1838 17.3076 58.1716C18.8863 57.4066 20.6931 57.2662 22.3699 57.7783C24.0467 58.2904 25.471 59.4177 26.3606 60.9366C26.4031 61.0084 26.4441 61.0818 26.4837 61.1556C27.0363 62.1806 27.325 63.3285 27.3237 64.4946Z" fill="#E5E5E5"/>
<path d="M26.384 67.5135C31.4374 67.5135 35.534 63.3921 35.534 58.3081C35.534 53.2241 31.4374 49.1026 26.384 49.1026C21.3305 49.1026 17.2339 53.2241 17.2339 58.3081C17.2339 63.3921 21.3305 67.5135 26.384 67.5135Z" fill="#E5E5E5"/>
<path opacity="0.2" d="M19.6279 52.1596C18.7744 54.1681 18.6586 56.4166 19.3012 58.5031C19.9438 60.5897 21.303 62.3783 23.1358 63.5495C24.9686 64.7207 27.1556 65.198 29.3061 64.8963C31.4565 64.5945 33.4302 63.5334 34.8745 61.9023C34.3532 63.1295 33.5728 64.2279 32.5876 65.1215C31.6024 66.0151 30.4358 66.6826 29.1687 67.0776C27.9016 67.4726 26.5644 67.5857 25.2495 67.4091C23.9347 67.2326 22.6737 66.7705 21.5539 66.055C20.4342 65.3395 19.4825 64.3876 18.7647 63.2653C18.0469 62.143 17.5803 60.8771 17.3971 59.5554C17.2139 58.2336 17.3185 56.8876 17.7037 55.6106C18.0889 54.3335 18.7454 53.156 19.6279 52.1596Z" fill="#252525"/>
<path d="M26.8789 83.9527L25.9445 83.689L25.9464 83.5879L26.2265 68.2756L26.2405 67.5121L26.2407 67.4899L26.2897 64.8146L26.3606 60.9371V60.9365L26.4088 58.3082H26.4345L26.4838 61.1557L26.5479 64.8619L26.5939 67.4916V67.511L26.5958 67.6195V67.6201L26.6846 72.7462L26.6938 73.2556L26.8773 83.8507L26.8789 83.9527Z" fill="#252525"/>
<path d="M27.8644 72.1212L26.3518 72.9223L26.5626 73.3251L28.0752 72.524L27.8644 72.1212Z" fill="#252525"/>
<path d="M144.995 28.5161C133.447 27.8291 121.863 28.0083 110.34 29.052C104.787 29.557 99.1447 30.1025 93.6937 31.3213C89.3032 32.303 84.2074 33.9621 81.4717 37.8266C80.8987 38.6053 80.5126 39.5067 80.3436 40.4604C80.1745 41.4142 80.227 42.3943 80.4971 43.3243C81.1494 45.5272 82.772 47.361 84.5001 48.7972C88.4774 52.1029 93.4122 54.0265 97.8202 56.6527C105.869 61.4477 113.234 67.9107 117.962 76.1207C120.043 79.7335 122.022 84.5373 119.705 88.5181C117.436 92.418 112.369 93.7617 108.238 94.3953C103.059 95.1895 97.7247 94.974 92.5245 94.5293C86.8233 93.9944 81.154 93.159 75.5398 92.0266C64.5414 89.9019 53.643 87.1992 42.4917 85.9702C36.9004 85.3085 31.2619 85.1445 25.6419 85.48C20.5664 85.8244 15.4474 86.632 10.6793 88.4732C7.00511 89.8921 3.08859 92.0387 1.10393 95.6186C-0.809194 99.0695 -0.0630151 103.049 2.02014 106.233C4.5266 110.064 8.43508 112.689 12.4986 114.608C17.1253 116.792 22.074 118.208 27.029 119.413C29.542 120.023 32.0686 120.576 34.5955 121.125C35.1226 121.239 35.3479 120.425 34.8188 120.31C29.7232 119.202 24.6128 118.091 19.6437 116.487C15.0454 115.003 10.3396 113.102 6.57391 109.986C3.52749 107.466 0.630979 103.783 0.810791 99.5971C0.992058 95.3769 4.5116 92.4303 7.96124 90.6167C12.2723 88.35 17.1703 87.246 21.9698 86.6689C27.4652 86.0528 33.0073 85.977 38.5174 86.4425C49.6424 87.2941 60.5188 89.8437 71.4265 92.0675C82.0231 94.2279 92.9504 96.2284 103.81 95.6742C108.114 95.4546 112.726 94.8341 116.526 92.6484C118.267 91.6476 119.836 90.2363 120.72 88.3997C121.517 86.6523 121.769 84.703 121.443 82.8087C120.826 78.6475 118.37 74.789 115.918 71.4746C113.231 67.8796 110.114 64.6314 106.638 61.8032C102.823 58.7141 98.7089 56.018 94.3585 53.7554C92.0515 52.5334 89.7117 51.3583 87.5131 49.9429C85.405 48.5859 83.3256 46.953 82.0382 44.7499C80.9248 42.8445 80.7206 40.6698 81.8803 38.7372C83.0533 36.7826 85.0742 35.4194 87.067 34.4232C91.8686 32.023 97.4509 31.3805 102.704 30.7222C113.984 29.3135 125.352 28.7433 136.715 29.0162C139.477 29.0815 142.237 29.1966 144.995 29.3613C145.535 29.3932 145.534 28.5479 144.995 28.5161V28.5161Z" fill="#252525"/>
<path d="M137.669 1.42335L139.413 0.0196585C138.058 -0.130765 137.501 0.612814 137.274 1.20136C136.215 0.759068 135.062 1.33871 135.062 1.33871L138.553 2.61352C138.377 2.14035 138.07 1.72749 137.669 1.42335Z" fill="#252525"/>
<path d="M129.203 5.86722L130.947 4.46352C129.592 4.3131 129.035 5.05667 128.807 5.64522C127.749 5.20293 126.596 5.78258 126.596 5.78258L130.086 7.05738C129.91 6.58421 129.604 6.17136 129.203 5.86722Z" fill="#252525"/>
<path d="M137.669 12.9033L139.413 11.4996C138.058 11.3492 137.501 12.0928 137.274 12.6813C136.215 12.239 135.062 12.8187 135.062 12.8187L138.553 14.0935C138.377 13.6203 138.07 13.2075 137.669 12.9033Z" fill="#252525"/>
<path d="M111.517 14.983C114.419 14.983 116.772 12.6156 116.772 9.69529C116.772 6.77497 114.419 4.40758 111.517 4.40758C108.614 4.40758 106.261 6.77497 106.261 9.69529C106.261 12.6156 108.614 14.983 111.517 14.983Z" fill="#FF6583"/>
<path d="M127.998 25.9892H102.214C102.182 25.9896 102.15 25.987 102.118 25.9815L114.313 4.73195C114.387 4.59958 114.495 4.48946 114.626 4.41284C114.756 4.33621 114.905 4.29584 115.056 4.29584C115.207 4.29584 115.355 4.33621 115.486 4.41284C115.616 4.48946 115.724 4.59958 115.799 4.73195L123.983 18.9916L124.375 19.6738L127.998 25.9892Z" fill="#6C63FF"/>
<path d="M142.353 25.9894H120.053L124.374 19.6746L124.685 19.2195L130.316 10.9901C130.416 10.8642 130.54 10.7608 130.682 10.6866C130.824 10.6124 130.98 10.5691 131.14 10.5595C131.299 10.5499 131.459 10.5742 131.609 10.6309C131.759 10.6876 131.895 10.7753 132.008 10.8884C132.038 10.9205 132.065 10.9545 132.09 10.9901L142.353 25.9894Z" fill="#6C63FF"/>
<path d="M105.567 74.7256C108.011 75.9545 109.499 77.5776 109.499 79.3578C109.499 83.1928 102.602 86.3016 94.093 86.3016C90.3936 86.3016 86.9998 85.7135 84.344 84.734C87.1648 86.1525 91.2595 87.0456 95.8185 87.0456C104.327 87.0456 111.225 83.9368 111.225 80.1018C111.225 77.9342 109.02 75.999 105.567 74.7256Z" fill="#F1F1F1"/>
<path d="M111.004 77.3598C113.761 78.7465 115.44 80.578 115.44 82.5867C115.44 86.914 107.657 90.422 98.0561 90.422C93.8818 90.422 90.0523 89.7584 87.0555 88.6532C90.2385 90.2537 94.8589 91.2615 100.003 91.2615C109.604 91.2615 117.387 87.7535 117.387 83.4262C117.387 80.9803 114.9 78.7967 111.004 77.3598Z" fill="#F1F1F1"/>
<path d="M103.487 75.8859C105.209 76.7517 106.257 77.8952 106.257 79.1494C106.257 81.8513 101.397 84.0415 95.4029 84.0415C93.0675 84.0719 90.7442 83.6983 88.5345 82.9371C90.5219 83.9364 93.4067 84.5657 96.6186 84.5657C102.613 84.5657 107.473 82.3754 107.473 79.6736C107.473 78.1464 105.919 76.7831 103.487 75.8859Z" fill="#F1F1F1"/>
<path d="M79.2943 75.3899C79.2943 75.3899 79.6727 80.9538 90.5187 80.9538C101.365 80.9538 104.603 75.3899 104.603 75.3899H79.2943Z" fill="#252525"/>
<path d="M94.6891 60.7918C93.1233 59.5951 91.158 59.0542 89.2048 59.2825C90.9503 59.7059 92.4919 60.7342 93.5589 62.1871C94.6259 63.6399 95.1502 65.4244 95.0398 67.2274C94.9294 69.0303 94.1914 70.7366 92.9552 72.0467C91.719 73.3568 90.0636 74.187 88.2797 74.3916C89.9861 74.8061 91.7823 74.6168 93.3663 73.8556C94.9503 73.0944 96.2256 71.8078 96.9777 70.212C97.7297 68.6163 97.9128 66.8086 97.496 65.0931C97.0792 63.3775 96.088 61.8586 94.6891 60.7918Z" fill="#252525"/>
<path d="M91.135 58.2784H90.3955V75.9876H91.135V58.2784Z" fill="#252525"/>
<path d="M139.735 45.1204L139.731 45.1136L139.721 44.681L142.037 41.297L139.723 44.3572L139.715 44.4487L139.636 40.9898L141.637 37.4814L139.63 40.3822L139.651 33.2163L139.651 33.1925L139.651 33.2159L139.518 38.8636L137.694 36.5695L139.512 39.3501L139.472 42.444L137.794 39.4245L139.466 42.8989L139.444 44.6192L139.382 49.3854L139.378 49.7415C139.532 49.7427 139.685 49.7401 139.837 49.7338L139.732 45.1558L139.735 45.1204Z" fill="#CBCBCB"/>
<path d="M128.642 46.6084L128.638 46.6015L128.628 46.169L130.945 42.785L128.631 45.8452L128.623 45.9366L128.543 42.4778L130.544 38.9694L128.538 41.8701L128.559 34.7043L128.559 34.6804L128.558 34.7039L128.425 40.3515L126.601 38.0575L128.419 40.8381L128.379 43.932L126.701 40.9125L128.373 44.3868L128.351 46.1071L128.29 50.8733L128.285 51.2295C128.44 51.2306 128.593 51.2281 128.744 51.2217L128.639 46.6437L128.642 46.6084Z" fill="#CBCBCB"/>
<path d="M134.065 41.8965L134.061 41.8897L134.051 41.4571L136.368 38.0731L134.054 41.1333L134.046 41.2248L133.966 37.7659L135.967 34.2575L133.961 37.1583L133.982 29.9924L133.982 29.9686L133.981 29.992L133.848 35.6397L132.024 33.3456L133.842 36.1262L133.802 39.2201L132.124 36.2006L133.796 39.6749L133.774 41.3953L133.713 46.1614L133.708 46.5176C133.863 46.5188 134.016 46.5162 134.167 46.5098L134.062 41.9318L134.065 41.8965Z" fill="#CBCBCB"/>
<path d="M42.451 124.245C44.0847 124.245 45.409 122.912 45.409 121.269C45.409 119.625 44.0847 118.293 42.451 118.293C40.8173 118.293 39.493 119.625 39.493 121.269C39.493 122.912 40.8173 124.245 42.451 124.245Z" fill="#6C63FF"/>
</svg>
